<mxfile host="65bd71144e">
    <diagram id="6HecUOUULOLh7EnDBYXw" name="ページ1">
        <mxGraphModel dx="553" dy="390" grid="1" gridSize="10" guides="1" tooltips="1" connect="1" arrows="1" fold="1" page="1" pageScale="1" pageWidth="827" pageHeight="1169" math="0" shadow="0">
            <root>
                <mxCell id="0"/>
                <mxCell id="1" parent="0"/>
                <mxCell id="51" value="Assets" style="childLayout=tableLayout;recursiveResize=0;strokeColor=#98bf21;fillColor=#A7C942;shadow=1;rounded=0;" vertex="1" parent="1">
                    <mxGeometry x="100" y="130" width="280" height="160" as="geometry"/>
                </mxCell>
                <mxCell id="52" style="shape=tableRow;horizontal=0;startSize=0;swimlaneHead=0;swimlaneBody=0;top=0;left=0;bottom=0;right=0;dropTarget=0;collapsible=0;recursiveResize=0;expand=0;fontStyle=0;strokeColor=inherit;fillColor=default;rounded=0;gradientColor=none;" vertex="1" parent="51">
                    <mxGeometry width="280" height="33" as="geometry"/>
                </mxCell>
                <mxCell id="53" value="Title 1" style="connectable=0;recursiveResize=0;strokeColor=inherit;fillColor=#A7C942;align=center;fontStyle=1;fontColor=#FFFFFF;html=1;rounded=0;" vertex="1" parent="52">
                    <mxGeometry width="93" height="33" as="geometry">
                        <mxRectangle width="93" height="33" as="alternateBounds"/>
                    </mxGeometry>
                </mxCell>
                <mxCell id="54" value="Title 2" style="connectable=0;recursiveResize=0;strokeColor=inherit;fillColor=#A7C942;align=center;fontStyle=1;fontColor=#FFFFFF;html=1;rounded=0;" vertex="1" parent="52">
                    <mxGeometry x="93" width="94" height="33" as="geometry">
                        <mxRectangle width="94" height="33" as="alternateBounds"/>
                    </mxGeometry>
                </mxCell>
                <mxCell id="55" value="Title 3" style="connectable=0;recursiveResize=0;strokeColor=inherit;fillColor=#A7C942;align=center;fontStyle=1;fontColor=#FFFFFF;html=1;rounded=0;" vertex="1" parent="52">
                    <mxGeometry x="187" width="93" height="33" as="geometry">
                        <mxRectangle width="93" height="33" as="alternateBounds"/>
                    </mxGeometry>
                </mxCell>
                <mxCell id="56" value="" style="shape=tableRow;horizontal=0;startSize=0;swimlaneHead=0;swimlaneBody=0;top=0;left=0;bottom=0;right=0;dropTarget=0;collapsible=0;recursiveResize=0;expand=0;fontStyle=0;strokeColor=inherit;fillColor=#ffffff;rounded=0;" vertex="1" parent="51">
                    <mxGeometry y="33" width="280" height="32" as="geometry"/>
                </mxCell>
                <mxCell id="57" value="Value 1" style="connectable=0;recursiveResize=0;strokeColor=inherit;fillColor=inherit;align=center;whiteSpace=wrap;html=1;rounded=0;" vertex="1" parent="56">
                    <mxGeometry width="93" height="32" as="geometry">
                        <mxRectangle width="93" height="32" as="alternateBounds"/>
                    </mxGeometry>
                </mxCell>
                <mxCell id="58" value="Value 2" style="connectable=0;recursiveResize=0;strokeColor=inherit;fillColor=inherit;align=center;whiteSpace=wrap;html=1;rounded=0;" vertex="1" parent="56">
                    <mxGeometry x="93" width="94" height="32" as="geometry">
                        <mxRectangle width="94" height="32" as="alternateBounds"/>
                    </mxGeometry>
                </mxCell>
                <mxCell id="59" value="Value 3" style="connectable=0;recursiveResize=0;strokeColor=inherit;fillColor=inherit;align=center;whiteSpace=wrap;html=1;rounded=0;" vertex="1" parent="56">
                    <mxGeometry x="187" width="93" height="32" as="geometry">
                        <mxRectangle width="93" height="32" as="alternateBounds"/>
                    </mxGeometry>
                </mxCell>
                <mxCell id="60" value="" style="shape=tableRow;horizontal=0;startSize=0;swimlaneHead=0;swimlaneBody=0;top=0;left=0;bottom=0;right=0;dropTarget=0;collapsible=0;recursiveResize=0;expand=0;fontStyle=1;strokeColor=inherit;fillColor=#EAF2D3;rounded=0;" vertex="1" parent="51">
                    <mxGeometry y="65" width="280" height="31" as="geometry"/>
                </mxCell>
                <mxCell id="61" value="Value 4" style="connectable=0;recursiveResize=0;strokeColor=inherit;fillColor=inherit;whiteSpace=wrap;html=1;rounded=0;" vertex="1" parent="60">
                    <mxGeometry width="93" height="31" as="geometry">
                        <mxRectangle width="93" height="31" as="alternateBounds"/>
                    </mxGeometry>
                </mxCell>
                <mxCell id="62" value="Value 5" style="connectable=0;recursiveResize=0;strokeColor=inherit;fillColor=inherit;whiteSpace=wrap;html=1;rounded=0;" vertex="1" parent="60">
                    <mxGeometry x="93" width="94" height="31" as="geometry">
                        <mxRectangle width="94" height="31" as="alternateBounds"/>
                    </mxGeometry>
                </mxCell>
                <mxCell id="63" value="Value 6" style="connectable=0;recursiveResize=0;strokeColor=inherit;fillColor=inherit;whiteSpace=wrap;html=1;rounded=0;" vertex="1" parent="60">
                    <mxGeometry x="187" width="93" height="31" as="geometry">
                        <mxRectangle width="93" height="31" as="alternateBounds"/>
                    </mxGeometry>
                </mxCell>
                <mxCell id="64" value="" style="shape=tableRow;horizontal=0;startSize=0;swimlaneHead=0;swimlaneBody=0;top=0;left=0;bottom=0;right=0;dropTarget=0;collapsible=0;recursiveResize=0;expand=0;fontStyle=0;strokeColor=inherit;fillColor=#ffffff;rounded=0;" vertex="1" parent="51">
                    <mxGeometry y="96" width="280" height="33" as="geometry"/>
                </mxCell>
                <mxCell id="65" value="Value 7" style="connectable=0;recursiveResize=0;strokeColor=inherit;fillColor=inherit;fontStyle=0;align=center;whiteSpace=wrap;html=1;rounded=0;" vertex="1" parent="64">
                    <mxGeometry width="93" height="33" as="geometry">
                        <mxRectangle width="93" height="33" as="alternateBounds"/>
                    </mxGeometry>
                </mxCell>
                <mxCell id="66" value="Value 8" style="connectable=0;recursiveResize=0;strokeColor=inherit;fillColor=inherit;fontStyle=0;align=center;whiteSpace=wrap;html=1;rounded=0;" vertex="1" parent="64">
                    <mxGeometry x="93" width="94" height="33" as="geometry">
                        <mxRectangle width="94" height="33" as="alternateBounds"/>
                    </mxGeometry>
                </mxCell>
                <mxCell id="67" value="Value 9" style="connectable=0;recursiveResize=0;strokeColor=inherit;fillColor=inherit;fontStyle=0;align=center;whiteSpace=wrap;html=1;rounded=0;" vertex="1" parent="64">
                    <mxGeometry x="187" width="93" height="33" as="geometry">
                        <mxRectangle width="93" height="33" as="alternateBounds"/>
                    </mxGeometry>
                </mxCell>
                <mxCell id="68" value="" style="shape=tableRow;horizontal=0;startSize=0;swimlaneHead=0;swimlaneBody=0;top=0;left=0;bottom=0;right=0;dropTarget=0;collapsible=0;recursiveResize=0;expand=0;fontStyle=1;strokeColor=inherit;fillColor=#EAF2D3;rounded=0;" vertex="1" parent="51">
                    <mxGeometry y="129" width="280" height="31" as="geometry"/>
                </mxCell>
                <mxCell id="69" value="Value 10" style="connectable=0;recursiveResize=0;strokeColor=inherit;fillColor=inherit;whiteSpace=wrap;html=1;rounded=0;" vertex="1" parent="68">
                    <mxGeometry width="93" height="31" as="geometry">
                        <mxRectangle width="93" height="31" as="alternateBounds"/>
                    </mxGeometry>
                </mxCell>
                <mxCell id="70" value="Value 11" style="connectable=0;recursiveResize=0;strokeColor=inherit;fillColor=inherit;whiteSpace=wrap;html=1;rounded=0;" vertex="1" parent="68">
                    <mxGeometry x="93" width="94" height="31" as="geometry">
                        <mxRectangle width="94" height="31" as="alternateBounds"/>
                    </mxGeometry>
                </mxCell>
                <mxCell id="71" value="Value 12" style="connectable=0;recursiveResize=0;strokeColor=inherit;fillColor=inherit;whiteSpace=wrap;html=1;rounded=0;" vertex="1" parent="68">
                    <mxGeometry x="187" width="93" height="31" as="geometry">
                        <mxRectangle width="93" height="31" as="alternateBounds"/>
                    </mxGeometry>
                </mxCell>
                <mxCell id="74" value="Assets" style="childLayout=tableLayout;recursiveResize=0;strokeColor=#98bf21;fillColor=#A7C942;shadow=1;rounded=0;" vertex="1" parent="1">
                    <mxGeometry x="460" y="130" width="280" height="160" as="geometry"/>
                </mxCell>
                <mxCell id="75" style="shape=tableRow;horizontal=0;startSize=0;swimlaneHead=0;swimlaneBody=0;top=0;left=0;bottom=0;right=0;dropTarget=0;collapsible=0;recursiveResize=0;expand=0;fontStyle=0;strokeColor=inherit;fillColor=default;rounded=0;gradientColor=none;" vertex="1" parent="74">
                    <mxGeometry width="280" height="33" as="geometry"/>
                </mxCell>
                <mxCell id="76" value="Title 1" style="connectable=0;recursiveResize=0;strokeColor=inherit;fillColor=#A7C942;align=center;fontStyle=1;fontColor=#FFFFFF;html=1;rounded=0;" vertex="1" parent="75">
                    <mxGeometry width="93" height="33" as="geometry">
                        <mxRectangle width="93" height="33" as="alternateBounds"/>
                    </mxGeometry>
                </mxCell>
                <mxCell id="77" value="Title 2" style="connectable=0;recursiveResize=0;strokeColor=inherit;fillColor=#A7C942;align=center;fontStyle=1;fontColor=#FFFFFF;html=1;rounded=0;" vertex="1" parent="75">
                    <mxGeometry x="93" width="94" height="33" as="geometry">
                        <mxRectangle width="94" height="33" as="alternateBounds"/>
                    </mxGeometry>
                </mxCell>
                <mxCell id="78" value="Title 3" style="connectable=0;recursiveResize=0;strokeColor=inherit;fillColor=#A7C942;align=center;fontStyle=1;fontColor=#FFFFFF;html=1;rounded=0;" vertex="1" parent="75">
                    <mxGeometry x="187" width="93" height="33" as="geometry">
                        <mxRectangle width="93" height="33" as="alternateBounds"/>
                    </mxGeometry>
                </mxCell>
                <mxCell id="79" value="" style="shape=tableRow;horizontal=0;startSize=0;swimlaneHead=0;swimlaneBody=0;top=0;left=0;bottom=0;right=0;dropTarget=0;collapsible=0;recursiveResize=0;expand=0;fontStyle=0;strokeColor=inherit;fillColor=#ffffff;rounded=0;" vertex="1" parent="74">
                    <mxGeometry y="33" width="280" height="32" as="geometry"/>
                </mxCell>
                <mxCell id="80" value="Value 1" style="connectable=0;recursiveResize=0;strokeColor=inherit;fillColor=inherit;align=center;whiteSpace=wrap;html=1;rounded=0;" vertex="1" parent="79">
                    <mxGeometry width="93" height="32" as="geometry">
                        <mxRectangle width="93" height="32" as="alternateBounds"/>
                    </mxGeometry>
                </mxCell>
                <mxCell id="81" value="Value 2" style="connectable=0;recursiveResize=0;strokeColor=inherit;fillColor=inherit;align=center;whiteSpace=wrap;html=1;rounded=0;" vertex="1" parent="79">
                    <mxGeometry x="93" width="94" height="32" as="geometry">
                        <mxRectangle width="94" height="32" as="alternateBounds"/>
                    </mxGeometry>
                </mxCell>
                <mxCell id="82" value="Value 3" style="connectable=0;recursiveResize=0;strokeColor=inherit;fillColor=inherit;align=center;whiteSpace=wrap;html=1;rounded=0;" vertex="1" parent="79">
                    <mxGeometry x="187" width="93" height="32" as="geometry">
                        <mxRectangle width="93" height="32" as="alternateBounds"/>
                    </mxGeometry>
                </mxCell>
                <mxCell id="83" value="" style="shape=tableRow;horizontal=0;startSize=0;swimlaneHead=0;swimlaneBody=0;top=0;left=0;bottom=0;right=0;dropTarget=0;collapsible=0;recursiveResize=0;expand=0;fontStyle=1;strokeColor=inherit;fillColor=#EAF2D3;rounded=0;" vertex="1" parent="74">
                    <mxGeometry y="65" width="280" height="31" as="geometry"/>
                </mxCell>
                <mxCell id="84" value="Value 4" style="connectable=0;recursiveResize=0;strokeColor=inherit;fillColor=inherit;whiteSpace=wrap;html=1;rounded=0;" vertex="1" parent="83">
                    <mxGeometry width="93" height="31" as="geometry">
                        <mxRectangle width="93" height="31" as="alternateBounds"/>
                    </mxGeometry>
                </mxCell>
                <mxCell id="85" value="Value 5" style="connectable=0;recursiveResize=0;strokeColor=inherit;fillColor=inherit;whiteSpace=wrap;html=1;rounded=0;" vertex="1" parent="83">
                    <mxGeometry x="93" width="94" height="31" as="geometry">
                        <mxRectangle width="94" height="31" as="alternateBounds"/>
                    </mxGeometry>
                </mxCell>
                <mxCell id="86" value="Value 6" style="connectable=0;recursiveResize=0;strokeColor=inherit;fillColor=inherit;whiteSpace=wrap;html=1;rounded=0;" vertex="1" parent="83">
                    <mxGeometry x="187" width="93" height="31" as="geometry">
                        <mxRectangle width="93" height="31" as="alternateBounds"/>
                    </mxGeometry>
                </mxCell>
                <mxCell id="87" value="" style="shape=tableRow;horizontal=0;startSize=0;swimlaneHead=0;swimlaneBody=0;top=0;left=0;bottom=0;right=0;dropTarget=0;collapsible=0;recursiveResize=0;expand=0;fontStyle=0;strokeColor=inherit;fillColor=#ffffff;rounded=0;" vertex="1" parent="74">
                    <mxGeometry y="96" width="280" height="33" as="geometry"/>
                </mxCell>
                <mxCell id="88" value="Value 7" style="connectable=0;recursiveResize=0;strokeColor=inherit;fillColor=inherit;fontStyle=0;align=center;whiteSpace=wrap;html=1;rounded=0;" vertex="1" parent="87">
                    <mxGeometry width="93" height="33" as="geometry">
                        <mxRectangle width="93" height="33" as="alternateBounds"/>
                    </mxGeometry>
                </mxCell>
                <mxCell id="89" value="Value 8" style="connectable=0;recursiveResize=0;strokeColor=inherit;fillColor=inherit;fontStyle=0;align=center;whiteSpace=wrap;html=1;rounded=0;" vertex="1" parent="87">
                    <mxGeometry x="93" width="94" height="33" as="geometry">
                        <mxRectangle width="94" height="33" as="alternateBounds"/>
                    </mxGeometry>
                </mxCell>
                <mxCell id="90" value="Value 9" style="connectable=0;recursiveResize=0;strokeColor=inherit;fillColor=inherit;fontStyle=0;align=center;whiteSpace=wrap;html=1;rounded=0;" vertex="1" parent="87">
                    <mxGeometry x="187" width="93" height="33" as="geometry">
                        <mxRectangle width="93" height="33" as="alternateBounds"/>
                    </mxGeometry>
                </mxCell>
                <mxCell id="91" value="" style="shape=tableRow;horizontal=0;startSize=0;swimlaneHead=0;swimlaneBody=0;top=0;left=0;bottom=0;right=0;dropTarget=0;collapsible=0;recursiveResize=0;expand=0;fontStyle=1;strokeColor=inherit;fillColor=#EAF2D3;rounded=0;" vertex="1" parent="74">
                    <mxGeometry y="129" width="280" height="31" as="geometry"/>
                </mxCell>
                <mxCell id="92" value="Value 10" style="connectable=0;recursiveResize=0;strokeColor=inherit;fillColor=inherit;whiteSpace=wrap;html=1;rounded=0;" vertex="1" parent="91">
                    <mxGeometry width="93" height="31" as="geometry">
                        <mxRectangle width="93" height="31" as="alternateBounds"/>
                    </mxGeometry>
                </mxCell>
                <mxCell id="93" value="Value 11" style="connectable=0;recursiveResize=0;strokeColor=inherit;fillColor=inherit;whiteSpace=wrap;html=1;rounded=0;" vertex="1" parent="91">
                    <mxGeometry x="93" width="94" height="31" as="geometry">
                        <mxRectangle width="94" height="31" as="alternateBounds"/>
                    </mxGeometry>
                </mxCell>
                <mxCell id="94" value="Value 12" style="connectable=0;recursiveResize=0;strokeColor=inherit;fillColor=inherit;whiteSpace=wrap;html=1;rounded=0;" vertex="1" parent="91">
                    <mxGeometry x="187" width="93" height="31" as="geometry">
                        <mxRectangle width="93" height="31" as="alternateBounds"/>
                    </mxGeometry>
                </mxCell>
            </root>
        </mxGraphModel>
    </diagram>
</mxfile>